<svg xmlns="http://www.w3.org/2000/svg" viewBox="0 0 163.08 33.45"><defs><style>.cls-1{fill:#ee6f57;}.cls-2{fill:#060d59;}</style></defs><title>ShiftspaceAsset 2</title><g id="Layer_2" data-name="Layer 2"><g id="Layer_1-2" data-name="Layer 1"><polygon class="cls-1" points="4.18 19.86 4.18 7.32 16.73 4.18 16.73 0 0 4.18 0 8.36 0 20.91 0 25.09 16.73 20.91 16.73 16.73 4.18 19.86"/><polygon class="cls-1" points="8.36 14.64 16.73 12.54 16.73 8.36 8.36 10.45 8.36 14.64"/><polygon class="cls-1" points="25.09 6.27 25.09 2.09 16.73 4.18 16.73 8.36 25.09 6.27"/><polygon class="cls-1" points="8.36 27.18 8.36 31.36 16.73 29.27 16.73 25.09 8.36 27.18"/><polygon class="cls-1" points="16.73 12.54 16.73 16.73 29.27 13.59 29.27 26.14 16.73 29.27 16.73 33.45 33.45 29.27 33.45 25.09 33.45 12.54 33.45 8.36 16.73 12.54"/><polygon class="cls-1" points="25.09 18.82 16.73 20.91 16.73 25.09 25.09 23 25.09 18.82"/><path class="cls-2" d="M52.7,16.69c-1.82-.26-2.41-.57-2.41-1.36S50.93,14,52.05,14a1.7,1.7,0,0,1,2,1.51h3.17c-.31-2.86-2.39-3.87-5.15-3.87-2.55,0-4.94,1.29-4.94,3.89,0,2.43,1.29,3.38,4.6,3.88,1.79.27,2.53.62,2.53,1.48s-.62,1.36-1.95,1.36c-1.51,0-2.05-.64-2.2-1.76H46.86c.11,2.69,2.07,4.17,5.43,4.17s5.24-1.41,5.24-4.1-1.71-3.46-4.83-3.91"/><path class="cls-2" d="M67,11.68a4.31,4.31,0,0,0-4,2.27V6.33l-3.45.86V24.44h3.45v-7.2a2.47,2.47,0,0,1,2.6-2.74c1.53,0,2.19.81,2.19,2.5v7.44h3.46V16.5c0-3.34-1.74-4.82-4.2-4.82"/><path class="cls-2" d="M75.69,6.51a1.89,1.89,0,1,0,2,1.89,1.89,1.89,0,0,0-2-1.89"/><rect class="cls-2" x="74" y="11.97" width="3.43" height="12.47"/><path class="cls-2" d="M80.93,10.54V12H79.29v2.46h1.64v10h3.44v-10h2.71V12H84.37V10.45A1.44,1.44,0,0,1,85.91,8.8,3.76,3.76,0,0,1,87.18,9V6.42a5.62,5.62,0,0,0-1.79-.24c-2.76,0-4.46,1.45-4.46,4.36"/><path class="cls-2" d="M93,20.43v-6h2.62V12H93V9.28H89.61V12H88v2.45h1.6v6.32c0,2.6,1.41,3.93,4,3.93a6.13,6.13,0,0,0,2.09-.33V21.67a3.13,3.13,0,0,1-1.31.24c-.88,0-1.38-.48-1.38-1.48"/><path class="cls-2" d="M107.72,20.6c0-2.67-1.71-3.46-4.84-3.91-1.81-.26-2.4-.57-2.4-1.36s.64-1.29,1.76-1.29a1.69,1.69,0,0,1,2,1.5h3.17c-.31-2.86-2.38-3.86-5.15-3.86-2.54,0-4.93,1.29-4.93,3.89,0,2.43,1.29,3.38,4.6,3.88,1.79.27,2.53.62,2.53,1.48s-.62,1.36-2,1.36c-1.5,0-2-.64-2.19-1.76H97c.12,2.69,2.08,4.17,5.44,4.17s5.24-1.41,5.24-4.1"/><path class="cls-2" d="M117.11,11.68a4.62,4.62,0,0,0-4,2.24V12h-3.46V28.68h0l3.41-.85v-5.3a4.36,4.36,0,0,0,4,2.17c3.1,0,5.43-2.31,5.43-6.44v-.19c0-4.12-2.38-6.39-5.43-6.39M119,18.29c0,2.43-1.05,3.71-3,3.71S113,20.79,113,18.29V18.1c0-2.51,1.24-3.77,3-3.77s3,1.24,3,3.77Z"/><path class="cls-2" d="M129.88,11.68c-3,0-5.38,1.31-5.6,4.27h3.27a1.87,1.87,0,0,1,2.12-1.76c1.57,0,2,.81,2,2.28V17h-1.4c-3.82,0-6.48,1.09-6.48,4,0,2.62,1.9,3.72,4.17,3.72a4.23,4.23,0,0,0,3.76-1.77v1.51h3.36V16.31c0-3.39-2.17-4.63-5.22-4.63m1.81,8.39c0,1.39-1.16,2.22-2.69,2.22-1.26,0-1.81-.6-1.81-1.5,0-1.34,1.17-1.77,3.17-1.77h1.33Z"/><path class="cls-2" d="M143.63,22.1c-1.93,0-3-1.29-3-3.79v-.19c0-2.38,1.2-3.72,3-3.72a2.3,2.3,0,0,1,2.53,2.12h3.26c-.31-3.57-3-4.84-5.86-4.84a6.19,6.19,0,0,0-6.43,6.49v.19c0,4.07,2.76,6.34,6.41,6.34s5.77-2.05,6-5H146.3a2.52,2.52,0,0,1-2.67,2.41"/><path class="cls-2" d="M163.08,18c0-4.45-2.86-6.34-6.08-6.34a6.19,6.19,0,0,0-6.41,6.49v.19c0,4,2.74,6.34,6.51,6.34,3.41,0,5.55-1.5,6-4.2h-3.27c-.21,1.05-1,1.74-2.6,1.74-1.88,0-3-1.19-3.1-3.26h9Zm-8.94-1.16c.26-1.77,1.31-2.79,2.86-2.79s2.6.9,2.72,2.79Z"/></g></g></svg>